<svg xmlns="http://www.w3.org/2000/svg" viewBox="0 0 96 96" role="img" aria-label="Rostilj">
  <path d="M21 71c16-8 34-11 54-7" stroke="#5a321e" stroke-width="7" stroke-linecap="round"/>
  <path d="M23 60c18-10 36-12 51-7" stroke="#7a3f22" stroke-width="8" stroke-linecap="round"/>
  <path d="M24 48c17-11 34-12 48-7" stroke="#9a4d26" stroke-width="8" stroke-linecap="round"/>
  <path d="M27 29c-5 9-2 14 5 18M45 16c-8 13 1 17 3 27M64 23c-7 10-2 15 6 19" fill="none" stroke="#ef3636" stroke-width="5" stroke-linecap="round"/>
  <path d="M35 36c-5 6-4 11 2 15M55 30c-6 8-3 13 4 17" fill="none" stroke="#ff7a1a" stroke-width="4" stroke-linecap="round"/>
</svg>
