<svg xmlns="http://www.w3.org/2000/svg" viewBox="0 0 128 96" role="img" aria-label="Jelo">
  <ellipse cx="64" cy="59" rx="45" ry="25" fill="#f8fbff" stroke="#b7c0c8" stroke-width="4"/>
  <path d="M39 49h18v18H39z" fill="#e2b15d"/>
  <path d="M63 45c15-10 30-4 31 9 1 11-11 18-25 15-12-3-16-16-6-24z" fill="#9d5a31"/>
  <path d="M80 36c-5-5-5-10 1-15" stroke="#57a65b" stroke-width="4" stroke-linecap="round"/>
  <path d="M76 55c6 3 11 2 16-2" stroke="#6b3b20" stroke-width="4" stroke-linecap="round"/>
  <path d="M82 48c9-2 17-2 25 0M83 54c9-2 17-2 25 0M83 60c9-2 17-2 25 0" stroke="#3b8d4d" stroke-width="5" stroke-linecap="round"/>
  <ellipse cx="42" cy="21" rx="15" ry="10" fill="#f2c55f" stroke="#d89a2d" stroke-width="3"/>
  <ellipse cx="84" cy="18" rx="20" ry="11" fill="#e3a968" stroke="#c77832" stroke-width="3"/>
</svg>
