<svg xmlns="http://www.w3.org/2000/svg" viewBox="0 0 96 96" role="img" aria-label="Narudzbe">
  <defs>
    <linearGradient id="dome" x1="27" x2="67" y1="20" y2="58" gradientUnits="userSpaceOnUse">
      <stop stop-color="#f5f7f8"/>
      <stop offset="1" stop-color="#bfc7cc"/>
    </linearGradient>
  </defs>
  <path d="M11 75c15-9 25-18 31-31l10 8C43 67 33 78 19 90z" fill="#111827"/>
  <path d="M37 42c3-7 10-7 13-2l7 13c3 6 1 13-5 16l-7 4c-6 3-13 1-16-5l-3-6c-3-6 0-13 6-16z" fill="#e4a66f"/>
  <path d="M24 58h50" stroke="#5a321e" stroke-width="5" stroke-linecap="round"/>
  <path d="M28 55c3-20 15-32 31-32s28 12 31 32z" fill="url(#dome)" stroke="#8c9296" stroke-width="3"/>
  <path d="M55 22a6 6 0 1 0-12 0" fill="none" stroke="#8c9296" stroke-width="3"/>
  <path d="M69 65h10v16H69z" fill="#f6f4ee" stroke="#d6d0c8" stroke-width="2"/>
</svg>
