<svg xmlns="http://www.w3.org/2000/svg" viewBox="0 0 96 96" role="img" aria-label="Placanje">
  <path d="M16 76c13-9 22-18 28-31l10 8C46 68 36 80 22 91z" fill="#172033"/>
  <path d="M42 43c4-7 11-7 15-1l6 11c4 7 2 15-5 19l-6 4c-7 4-15 2-19-5l-2-4c-4-7-2-15 5-19z" fill="#efc090"/>
  <rect x="35" y="19" width="31" height="47" rx="5" fill="#eef4ff" stroke="#172033" stroke-width="4"/>
  <path d="M41 28h19" stroke="#64748b" stroke-width="3" stroke-linecap="round"/>
  <path d="M42 39h16" stroke="#ef4444" stroke-width="6" stroke-linecap="round"/>
  <path d="M45 50h12" stroke="#2563eb" stroke-width="4" stroke-linecap="round"/>
  <circle cx="70" cy="22" r="4" fill="#facc15"/>
  <circle cx="79" cy="31" r="4" fill="#facc15"/>
  <circle cx="73" cy="43" r="4" fill="#facc15"/>
</svg>
