<svg width="64" height="64" viewBox="0 0 64 64" xmlns="http://www.w3.org/2000/svg" role="img" aria-label="Kuharska kapa">
  <path d="M16 31.5c-5.2-.7-9-4.6-9-9.4 0-5.4 4.9-9.8 10.9-9.8 1.9 0 3.7.4 5.2 1.2C25.1 8.4 30.1 5 36 5c7.2 0 13.1 5 13.7 11.4 4.6 1.1 7.9 4.8 7.9 9.2 0 5.3-4.8 9.7-10.8 9.7H16z" fill="#fff8ee"/>
  <path d="M16 31.5c-5.2-.7-9-4.6-9-9.4 0-5.4 4.9-9.8 10.9-9.8 1.9 0 3.7.4 5.2 1.2C25.1 8.4 30.1 5 36 5c7.2 0 13.1 5 13.7 11.4 4.6 1.1 7.9 4.8 7.9 9.2 0 5.3-4.8 9.7-10.8 9.7H16z" fill="none" stroke="#201a16" stroke-width="4" stroke-linecap="round" stroke-linejoin="round"/>
  <path d="M15 31h34v21c0 3.9-3.1 7-7 7H22c-3.9 0-7-3.1-7-7V31z" fill="#fff8ee"/>
  <path d="M15 31h34v21c0 3.9-3.1 7-7 7H22c-3.9 0-7-3.1-7-7V31z" fill="none" stroke="#201a16" stroke-width="4" stroke-linejoin="round"/>
  <path d="M15 43h34" stroke="#ef9d63" stroke-width="5" stroke-linecap="round"/>
  <path d="M25 33v20M35 33v20" stroke="#d7cfc4" stroke-width="3" stroke-linecap="round"/>
</svg>
