<svg xmlns="http://www.w3.org/2000/svg" width="2048" height="512" viewBox="0 0 2048 512" role="img" aria-label="ProductionPilot">
  <defs>
    <linearGradient id="logoPanel" x1="0" x2="1" y1="0" y2="1">
      <stop offset="0" stop-color="#07131d"/>
      <stop offset="0.48" stop-color="#101820"/>
      <stop offset="1" stop-color="#07111a"/>
    </linearGradient>
    <radialGradient id="logoGlow" cx="42%" cy="44%" r="72%">
      <stop offset="0" stop-color="#203443" stop-opacity="0.75"/>
      <stop offset="0.58" stop-color="#101820" stop-opacity="0.18"/>
      <stop offset="1" stop-color="#101820" stop-opacity="0"/>
    </radialGradient>
    <linearGradient id="logoOrange" x1="0" x2="1" y1="0" y2="1">
      <stop offset="0" stop-color="#ff8a1a"/>
      <stop offset="0.52" stop-color="#ff6b0b"/>
      <stop offset="1" stop-color="#e85a00"/>
    </linearGradient>
    <linearGradient id="logoWhite" x1="0" x2="0" y1="0" y2="1">
      <stop offset="0" stop-color="#ffffff"/>
      <stop offset="0.58" stop-color="#f7f8f9"/>
      <stop offset="1" stop-color="#dfe5e8"/>
    </linearGradient>
    <filter id="logoShadow" x="-20%" y="-20%" width="140%" height="140%" color-interpolation-filters="sRGB">
      <feDropShadow dx="0" dy="12" stdDeviation="12" flood-color="#000000" flood-opacity="0.45"/>
    </filter>
    <filter id="textShadow" x="-16%" y="-20%" width="140%" height="150%" color-interpolation-filters="sRGB">
      <feDropShadow dx="0" dy="9" stdDeviation="7" flood-color="#000000" flood-opacity="0.55"/>
    </filter>
  </defs>
  <rect width="2048" height="512" fill="url(#logoPanel)"/>
  <rect width="2048" height="512" fill="url(#logoGlow)"/>
  <g transform="translate(72 122) scale(0.74)" filter="url(#logoShadow)">
    <path d="M0 154c0-12 9-21 21-21h191l-42-72c-6-11 6-24 17-17l186 120c11 7 11 24 0 31L187 315c-11 7-23-6-17-17l42-72H21c-12 0-21-9-21-21s9-21 21-21h224l63-30-63-29H21c-12 0-21-9-21-21z" fill="url(#logoOrange)"/>
    <path d="M20 181h225l51-23-51-23H20" fill="none" stroke="#ff7a12" stroke-width="12" stroke-linecap="round" opacity="0.92"/>
    <path d="M304 306V138h54l23-116h100v146l118-76v76l118-76v78h43v136z" fill="url(#logoWhite)"/>
    <path d="M304 306h456v34H304z" fill="#f6f8f9" opacity="0.92"/>
    <rect x="385" y="236" width="42" height="44" rx="4" fill="#101820"/>
    <rect x="470" y="236" width="42" height="44" rx="4" fill="#101820"/>
    <rect x="555" y="236" width="42" height="44" rx="4" fill="#101820"/>
    <path d="M304 138h54l23-116h100v146l118-76v76l118-76v78h43" fill="none" stroke="#ffffff" stroke-width="8" opacity="0.42"/>
  </g>
  <text x="654" y="321" fill="url(#logoWhite)" filter="url(#textShadow)" font-family="Inter, Segoe UI, Arial, sans-serif" font-size="168" font-weight="900">Production</text>
  <text x="1561" y="321" fill="url(#logoOrange)" filter="url(#textShadow)" font-family="Inter, Segoe UI, Arial, sans-serif" font-size="168" font-weight="900">Pilot</text>
</svg>
